# xmcd
#
# Track frame offsets:
#  150
#  19939
#  40061
#  62411
#  82367
#  102873
#  126220
#  149183
#  169983
#  190258
#  212620
#  248473
#
# Disc length: 3491 seconds
#
# Revision: 0
# Processed by: cddbd v1.5.2PL0 Copyright (c) Steve Scherf et al.
# Submitted via: Collectorz.com_Music_Collector 6.11
#
DISCID=ac0da10c
DTITLE=Foo Fighters - One By One
DYEAR=2002
DGENRE=Grunge - Rock
TTITLE0=All My Life
TTITLE1=Low
TTITLE2=Have It All
TTITLE3=Times Like These (One-Way Motorway)
TTITLE4=Disenchanted Lullabye
TTITLE5=Tired
TTITLE6=Halo
TTITLE7=Lonely As You
TTITLE8=Overdrive
TTITLE9=Burn Away
TTITLE10=Come Back
TTITLE11=Danny Says
EXTD=
EXTT0=
EXTT1=
EXTT2=
EXTT3=
EXTT4=
EXTT5=
EXTT6=
EXTT7=
EXTT8=
EXTT9=
EXTT10=
EXTT11=
PLAYORDER=
